<svg xmlns="http://www.w3.org/2000/svg" width="125.23mm" height="19.34mm" viewBox="0 0 354.98 54.81"><defs><style>.a{fill:#004899;}.b{fill:#e3051a;}</style></defs><title>british-airways</title><path class="a" d="M0,54.36a2.4,2.4,0,0,0,1.13-2.15V32.36A2.44,2.44,0,0,0,0,30.18H9.46c4.22,0,8.33,1.73,8.33,6.52,0,2.54-2.21,4.54-4.6,5,3.44,0,6.76,2.07,6.76,5.86,0,5.42-5.69,6.81-9.69,6.81ZM7.66,32.27a10.5,10.5,0,0,0-1.55.1v8.46h1c2.9,0,5.7-.9,5.7-4.25S10.52,32.27,7.66,32.27ZM8.26,43c-.69,0-1.31,0-2.15.06V52a17.19,17.19,0,0,0,3.23.27c2.43,0,4.89-1.08,4.89-4.79S11.31,43,8.26,43Zm21-10.74a8.55,8.55,0,0,0-1.24.13v8.36c.4,0,.75.07,1.15.07,2.72,0,4.73-1.5,4.73-4.46S32,32.27,29.31,32.27ZM41.5,54.5a10.24,10.24,0,0,1-2.83-.23c-1.65-.49-3.92-4.2-4.82-5.65C32.43,46.26,31.21,43,28.07,43v9.24a2.38,2.38,0,0,0,1.15,2.15H22a2.39,2.39,0,0,0,1.13-2.15V32.36A2.47,2.47,0,0,0,22,30.18h8.74c3.8,0,8.56,1.46,8.56,6,0,3.83-3.17,5.8-6.71,5.8,5,0,8,11.83,13.55,11.87A16.2,16.2,0,0,1,41.5,54.5Zm5-.14a2.36,2.36,0,0,0,1.23-2.15V32.36a2.42,2.42,0,0,0-1.23-2.18H53.9a2.34,2.34,0,0,0-1.22,2.18V52.21a2.29,2.29,0,0,0,1.22,2.15Zm16.15,0a2.34,2.34,0,0,0,1.19-2.15V33H58.45a7.66,7.66,0,0,0-3.76.78l1.66-3.55H74.07a20.81,20.81,0,0,0,4.3-.33A5.09,5.09,0,0,1,74.52,33c-1.41,0-3.74-.12-5.74-.12V52.21A2.38,2.38,0,0,0,70,54.36Zm16.65,0a2.37,2.37,0,0,0,1.22-2.15V32.36a2.42,2.42,0,0,0-1.22-2.18h7.44a2.36,2.36,0,0,0-1.24,2.18V52.21a2.31,2.31,0,0,0,1.24,2.15Zm21.93-5.47c0-4.6-10.85-5.64-10.85-13,0-4.55,4.33-6,8.13-6a15.47,15.47,0,0,1,5.71.95l.27,4.52a6.48,6.48,0,0,0-5.56-3.44c-1.75,0-3.59.87-3.59,2.88,0,4.78,11,5.94,11,12.9,0,5.05-4.42,7.15-8.87,7.15-2.33,0-5.5-.45-7.47-1.79a17.18,17.18,0,0,1-.17-2.48,19.87,19.87,0,0,1,.23-3,7.78,7.78,0,0,0,6.94,5C99.38,52.57,101.18,51.52,101.18,48.89Zm23.24,5.47a2.38,2.38,0,0,0,1.09-2.15v-9a49.61,49.61,0,0,0-5.13-.21,51.28,51.28,0,0,0-5.21.21v9a2.41,2.41,0,0,0,1.08,2.15h-7.16a2.38,2.38,0,0,0,1.1-2.15V32.36a2.45,2.45,0,0,0-1.1-2.18h7.16a2.43,2.43,0,0,0-1.08,2.18v8.13c1.33.14,3.12.21,5.21.21s3.84-.09,5.13-.21V32.36a2.45,2.45,0,0,0-1.09-2.18h7.15a2.42,2.42,0,0,0-1.07,2.18V52.21a2.4,2.4,0,0,0,1.07,2.15Z"/><path class="a" d="M158.12,54.36a1.08,1.08,0,0,0,.44-.84,2.58,2.58,0,0,0-.23-.84l-2.22-6a37.77,37.77,0,0,0-4.57-.18,42,42,0,0,0-4.34.18c-.2.54-2.33,5.92-2.33,5.92a4.56,4.56,0,0,0-.39,1.13c0,.36.31.53.57.66h-4.87a3.76,3.76,0,0,0,1.65-1.86l8-20.64a.75.75,0,0,0,0-.3,1.62,1.62,0,0,0-.89-1.37h6.27l8.13,22.3A3.73,3.73,0,0,0,165,54.36ZM151.8,34.78l-3.67,9.41a30.78,30.78,0,0,0,3.33.15,31.66,31.66,0,0,0,3.75-.15Zm14.48,19.58a2.36,2.36,0,0,0,1.22-2.15V32.36a2.42,2.42,0,0,0-1.22-2.18h7.44a2.35,2.35,0,0,0-1.22,2.18V52.21a2.3,2.3,0,0,0,1.22,2.15ZM185,32.27a8.37,8.37,0,0,0-1.2.13v8.36c.39,0,.74.07,1.12.07,2.73,0,4.74-1.5,4.74-4.46S187.68,32.27,185,32.27Zm12.8,22.24a10.3,10.3,0,0,1-2.83-.23c-1.65-.49-3.92-4.2-4.82-5.65-1.4-2.37-3.22-5.66-6.35-5.66v9.24a2.38,2.38,0,0,0,1.12,2.15h-7.25a2.37,2.37,0,0,0,1.14-2.15V32.36a2.45,2.45,0,0,0-1.14-2.18h8.76c3.79,0,8.54,1.46,8.54,6,0,3.83-3.47,5.8-6.09,5.8,5.22.3,8.36,11.87,13.54,11.87A16.33,16.33,0,0,1,197.82,54.5Zm30.16-22-7.35,21.82a2.87,2.87,0,0,1-1.54-.44c-.72-.7-1.87-3.62-2.28-4.7l-3.32-8.39-4.78,13.53h-2.28l-8.22-21.87a4.28,4.28,0,0,0-1.85-2.31h7.15a1.15,1.15,0,0,0-.51,1,3.13,3.13,0,0,0,.21.84l5.35,14.47,5.7-16.32,6.28,15.73,4.76-14.24a2.59,2.59,0,0,0,.19-.77.86.86,0,0,0-.43-.72h4.73A4.22,4.22,0,0,0,228,32.54Zm8.79,2.24L233.1,44.2a31.12,31.12,0,0,0,3.34.15,31.6,31.6,0,0,0,3.75-.15Zm6.31,19.58a1,1,0,0,0,.44-.84,3.59,3.59,0,0,0-.22-.84s-2-5.4-2.21-6a38,38,0,0,0-4.58-.18,42.24,42.24,0,0,0-4.34.18c-.21.54-2.32,5.92-2.32,5.92a3.86,3.86,0,0,0-.39,1.13c0,.36.3.53.55.66h-4.87a3.72,3.72,0,0,0,1.64-1.86l8-20.64a1.12,1.12,0,0,0,0-.3,1.61,1.61,0,0,0-.9-1.37h6.28l8.13,22.3A3.78,3.78,0,0,0,250,54.36Zm21.85-21.64-5.73,10v9.44a2.4,2.4,0,0,0,1.08,2.15h-7.12a2.54,2.54,0,0,0,1.06-2.15V42.73l-5-8c-.45-.75-2.52-4.22-5.05-4.22a16.09,16.09,0,0,1,4.18-.66c2.34,0,3.5.21,4.94,2.46l4.61,7.3c.39-.72,4-7.06,4-7.06a5.12,5.12,0,0,0,.74-1.59.9.9,0,0,0-.5-.81h5.13A6.32,6.32,0,0,0,264.92,32.72Zm13.41,16.17c0-4.6-10.85-5.64-10.85-13,0-4.55,4.32-6,8.12-6a15.48,15.48,0,0,1,5.71.95l.27,4.52A6.5,6.5,0,0,0,276,31.88c-1.76,0-3.58.87-3.58,2.88,0,4.78,11,5.94,11,12.9,0,5.05-4.38,7.15-8.87,7.15-2.33,0-5.51-.45-7.48-1.79a16,16,0,0,1-.19-2.48,19.63,19.63,0,0,1,.24-3,7.79,7.79,0,0,0,6.94,5C276.53,52.57,278.33,51.52,278.33,48.89Z"/><path class="a" d="M345.06,13.26c-4.06,4-12.87,7.51-17.21,9.13-5.92,2.22-8.55,3-11.86,4.09C312.25,27.7,304.75,30,304.75,30a184.41,184.41,0,0,0,26.48,6,83.68,83.68,0,0,0,13.18-5.9c4.37-2.22,6.53-3.72,8.07-5.15a7.83,7.83,0,0,0,2.4-4,5.55,5.55,0,0,0,.09-.88s0-.26,0-.48a2,2,0,0,0-.05-.43,6.39,6.39,0,0,0-.2-.79,5.23,5.23,0,0,0-1.43-2,12.22,12.22,0,0,0-4.86-2.73,28.72,28.72,0,0,0-3-.77Z"/><path class="b" d="M355,20a4.2,4.2,0,0,0-.13-.8,3.09,3.09,0,0,0-.45-1,8.32,8.32,0,0,0-1.15-1.35,10.61,10.61,0,0,0-1.36-1.06,18.18,18.18,0,0,0-7.28-2.5,69,69,0,0,0-8.46-.42c-1.38,0-10.33.05-12.62.09-10.21.21-22.7.24-26,.24-33.79.15-48.5-.57-64.87-3.86A188.29,188.29,0,0,1,211,3.95c12.28-.42,84-3.4,97-3.75,8.56-.24,14.64-.29,19.5,0a65.42,65.42,0,0,1,7.73.85,37.12,37.12,0,0,1,6.37,1.72A15.11,15.11,0,0,1,348.24,7a10.91,10.91,0,0,1,.85,1c.55.76,1.18,1.69,1.39,2a45.2,45.2,0,0,1,2.91,5c.32.62.6,1.26.87,1.89a12.88,12.88,0,0,1,.46,1.26,7.12,7.12,0,0,1,.24,1.4Z"/></svg>